<?xml version="1.0" standalone="no"?>
<!DOCTYPE svg PUBLIC "-//W3C//DTD SVG 20010904//EN"
 "http://www.w3.org/TR/2001/REC-SVG-20010904/DTD/svg10.dtd">
<svg version="1.0" xmlns="http://www.w3.org/2000/svg"
 width="260.000000pt" height="260.000000pt" viewBox="0 0 260.000000 260.000000"
 preserveAspectRatio="xMidYMid meet">
<metadata>
Created by potrace 1.11, written by Peter Selinger 2001-2013
</metadata>
<g transform="translate(0.000000,260.000000) scale(0.100000,-0.100000)"
fill="#000000" stroke="none">
<path d="M0 1300 l0 -1300 1300 0 1300 0 0 1300 0 1300 -1300 0 -1300 0 0
-1300z m905 480 c96 -14 168 -51 211 -109 92 -124 84 -316 -18 -420 -38 -38
-109 -76 -161 -86 -44 -8 -46 -17 -11 -36 50 -26 130 -127 230 -290 56 -90
104 -170 108 -176 6 -10 -22 -13 -126 -13 l-133 0 -120 182 c-178 272 -198
290 -319 292 l-71 1 -3 -237 -2 -238 -110 0 -110 0 0 570 0 570 283 0 c155 0
314 -5 352 -10z m727 -238 l3 -249 225 249 224 248 149 0 148 0 -28 -34 c-15
-18 -108 -117 -207 -220 -103 -108 -176 -191 -173 -199 3 -7 98 -159 212 -337
114 -178 209 -330 212 -337 4 -11 -22 -13 -138 -11 l-144 3 -147 255 c-81 140
-150 260 -152 265 -3 6 -46 -32 -95 -84 l-91 -93 0 -174 0 -174 -115 0 -115 0
0 570 0 570 115 0 115 0 2 -248z"/>
<path d="M500 1455 l0 -147 178 4 c153 3 181 6 209 22 87 53 80 198 -13 246
-22 11 -73 16 -201 18 l-173 4 0 -147z"/>
</g>
</svg>
